<?xml version="1.0" encoding="UTF-8"?>
<svg width="374px" height="172px" viewBox="0 0 374 172" version="1.1" xmlns="http://www.w3.org/2000/svg" xmlns:xlink="http://www.w3.org/1999/xlink">
    <!-- Generator: Sketch 57.1 (83088) - https://sketch.com -->
    <title>MPCA_logo_white_h</title>
    <desc>Created with Sketch.</desc>
    <g id="Page-1" stroke="none" stroke-width="1" fill="none" fill-rule="evenodd">
        <g id="MPCA_logo_final_11.09.19" transform="translate(-107.000000, -594.000000)" fill="#FFFFFF">
            <g id="MPCA_logo_white_h" transform="translate(107.000000, 594.000000)">
                <g id="Group">
                    <path d="M78.7855069,0.00425 L78.8230069,0.006 C82.3219884,0.110037037 84.4049102,3.94977435 82.8054882,7.01817122 L82.7110069,7.191 L75.5410069,19.713 L40.5830069,80.353 C39.8520069,81.928 39.3700069,83.586 39.3230069,85.724 C39.3668736,87.7362667 39.8532647,89.4209956 40.5504647,90.9765677 L40.7030069,91.308 L43.6630069,96.442 L43.6728819,96.458 L43.6728819,96.458 L43.6820069,96.474 L78.7480069,157.304 L90.4860069,136.973 L67.6440069,97.41 C65.9008958,94.389 68.0081183,90.6272178 71.4460053,90.4889285 L71.6420069,90.485 L124.862007,90.485 C128.349211,90.485 130.554254,94.1908378 128.954632,97.2382382 L128.860007,97.41 L117.404007,117.251 L102.250007,143.499 C102.104507,143.75175 101.938194,143.97975 101.758241,144.188906 L101.574007,144.392 L96.4380069,153.203 L89.4810069,165.252 C87.3223569,168.991125 83.3793838,171.329979 79.0794509,171.444585 L78.7480069,171.449 L55.5490069,171.449 C51.1869016,171.343842 47.2665928,169.246808 44.9955107,165.554836 L44.8150069,165.252 L4.36200689,96.474 L4.30900689,96.384 C3.42600689,94.89 2.50500689,93.489 1.73600689,92.009 C1.73600689,92.009 -0.003993114,89.08 -1.31208707e-15,85.723 C0.00485962464,82.7918235 1.49625428,79.8719516 1.58397918,79.70273 L1.58800689,79.695 L44.8150069,6.201 C46.9960595,2.42310526 50.8589723,0.230368421 55.1963147,0.0169582847 L55.5490069,0.004 L78.7855069,0.00425 Z M117.756007,0 L140.955007,0 C145.317112,0.106131579 149.237421,2.20224307 151.508503,5.89416568 L151.689007,6.197 L194.896007,79.657 C194.896007,79.657 196.409659,82.382329 196.496154,85.4495374 L196.500007,85.721 C196.353321,89.0957429 194.876056,91.810858 194.79176,91.9632525 L194.788007,91.97 L151.689007,165.247 C149.507954,169.025868 145.645042,171.218631 141.307699,171.432042 L140.955007,171.445 L117.756007,171.445 L117.682007,171.443 C114.191859,171.348778 112.039742,167.631562 113.632817,164.574318 L113.727007,164.402 L123.344007,147.607 L155.804007,91.297 C156.580007,89.652 157.133007,87.875 157.180007,85.724 C157.13614,83.7192 156.710727,82.1368889 156.054992,80.6494127 L155.911007,80.332 L155.911007,80.331 L117.757007,14.147 L117.755007,14.147 L106.018007,34.475 L106.018007,34.476 L128.859007,74.038 C130.603099,77.059 128.494932,80.8217455 125.056064,80.9600705 L124.860007,80.964 L71.6440069,80.964 C68.1558217,80.964 65.95076,77.2571989 67.5503819,74.2097629 L67.6450069,74.038 L94.2540069,27.95 C94.3747569,27.74075 94.5118194,27.550625 94.6576006,27.3720312 L94.8060069,27.197 L98.2220069,21.336 L98.2520069,21.389 L107.023007,6.197 C109.181657,2.457875 113.12463,0.119020625 117.424563,0.00441485937 L117.756007,0 L140.955007,0 Z M346.209007,109.66 C349.546007,109.66 352.022007,111.693 352.647007,115.185 L350.614007,115.185 C350.119007,112.918 348.529007,111.432 346.209007,111.432 C344.984007,111.432 343.810007,111.901 343.002007,112.735 C341.864552,113.897667 341.707843,115.134618 341.69939,118.750018 L341.699007,119.096 C341.699007,122.98 341.829007,124.257 343.002007,125.457 C343.810007,126.29 344.984007,126.76 346.209007,126.76 C348.529007,126.76 350.171007,125.274 350.666007,123.006 L352.647007,123.006 C352.048007,126.499 349.519007,128.532 346.209007,128.532 C344.384007,128.532 342.716007,127.855 341.465007,126.604 C339.827194,124.96525 339.724831,123.259703 339.718433,119.809747 L339.718433,118.382242 C339.724831,114.932184 339.827194,113.225875 341.465007,111.589 C342.716007,110.337 344.384007,109.66 346.209007,109.66 Z M233.005007,109.816 L239.809007,128.376 L237.697007,128.376 L236.211007,124.179 L228.104007,124.179 L226.619007,128.376 L224.507007,128.376 L231.337007,109.816 L233.005007,109.816 Z M249.140007,109.816 L249.140007,126.604 L258.628007,126.604 L258.628007,128.376 L247.158007,128.376 L247.158007,109.816 L249.140007,109.816 Z M268.168007,109.816 L268.168007,126.604 L277.656007,126.604 L277.656007,128.376 L266.186007,128.376 L266.186007,109.816 L268.168007,109.816 Z M287.717007,109.816 L287.717007,128.376 L285.736007,128.376 L285.736007,109.816 L287.717007,109.816 Z M304.556007,109.816 L311.360007,128.376 L309.248007,128.376 L307.762007,124.179 L299.655007,124.179 L298.169007,128.376 L296.058007,128.376 L302.888007,109.816 L304.556007,109.816 Z M320.064007,109.816 L329.918007,124.649 L329.918007,109.816 L331.899007,109.816 L331.899007,128.376 L330.022007,128.376 L320.169007,113.492 L320.169007,128.376 L318.187007,128.376 L318.187007,109.816 L320.064007,109.816 Z M371.154007,109.816 L371.154007,111.589 L361.613007,111.589 L361.613007,118.132 L369.746007,118.132 L369.746007,119.904 L361.613007,119.904 L361.613007,126.604 L371.154007,126.604 L371.154007,128.376 L359.632007,128.376 L359.632007,109.816 L371.154007,109.816 Z M232.197007,112.657 L228.703007,122.458 L235.638007,122.458 L232.197007,112.657 Z M303.748007,112.657 L300.254007,122.458 L307.189007,122.458 L303.748007,112.657 Z M358.592007,40.805 C363.042007,40.805 368.843007,41.679 372.737007,42.95 L369.081007,53.042 C365.744007,51.612 362.407007,50.102 358.592007,50.102 C349.692007,50.102 346.037007,55.664 346.037007,67.584 C346.037007,80.219 349.374007,85.622 358.116007,85.622 C362.565007,85.622 365.506007,83.954 369.638007,82.285 L373.293007,92.377 C368.764007,93.966 364.552007,94.92 358.354007,94.92 C340.236007,94.92 333.561007,84.192 333.561007,67.664 C333.561007,53.36 339.521007,40.805 358.592007,40.805 Z M244.455007,42.707 L255.579007,78.065 L267.100007,42.707 L286.567007,42.707 L286.567007,94.115 L274.569007,94.115 L274.569007,55.579 L261.618007,94.115 L248.666007,94.115 L235.795007,55.579 L235.795007,94.115 L224.194007,94.115 L224.194007,42.707 L244.455007,42.707 Z M312.042007,42.702 C322.532007,42.702 330.716007,46.278 330.716007,58.515 C330.716007,70.752 323.247007,74.805 312.916007,74.805 L304.493007,74.805 L304.493007,94.115 L292.414007,94.115 L292.414007,42.702 L312.042007,42.702 Z M311.883007,51.999 L304.493007,51.999 L304.493007,65.508 L312.281007,65.508 C315.221007,65.508 318.479007,63.918 318.479007,58.515 C318.479007,51.999 314.506007,51.999 311.883007,51.999 Z" id="Combined-Shape"></path>
                </g>
            </g>
        </g>
    </g>
</svg>